<?xml version="1.0" standalone="no"?>
<!DOCTYPE svg PUBLIC "-//W3C//DTD SVG 20010904//EN"
 "http://www.w3.org/TR/2001/REC-SVG-20010904/DTD/svg10.dtd">
<svg version="1.0" xmlns="http://www.w3.org/2000/svg"
 width="700.000000pt" height="700.000000pt" viewBox="0 0 700.000000 700.000000"
 preserveAspectRatio="xMidYMid meet">
<metadata>
Created by potrace 1.14, written by Peter Selinger 2001-2017
</metadata>
<g transform="translate(0.000000,700.000000) scale(0.100000,-0.100000)"
fill="#000000" stroke="none">
<path d="M3205 6769 c-981 -85 -1893 -631 -2443 -1463 -612 -926 -713 -2093
-268 -3121 294 -680 844 -1264 1511 -1605 343 -175 677 -279 1086 -336 156
-22 633 -26 779 -6 271 37 485 86 703 162 1067 368 1876 1271 2125 2370 200
878 32 1797 -463 2540 -460 690 -1143 1173 -1941 1373 -339 85 -735 116 -1089
86z m603 -1627 c229 -50 423 -143 590 -281 163 -135 291 -400 309 -638 l6 -83
-316 0 -317 0 -4 23 c-3 12 -10 46 -15 75 -21 103 -93 208 -189 274 -60 41
-182 84 -281 98 -104 16 -325 8 -406 -14 -144 -39 -255 -117 -302 -214 -24
-50 -28 -69 -28 -147 0 -107 18 -150 90 -213 87 -76 133 -90 975 -294 124 -30
275 -74 335 -97 310 -117 481 -303 540 -587 22 -105 22 -303 0 -409 -70 -337
-332 -609 -700 -730 -152 -49 -275 -67 -500 -72 -364 -9 -603 33 -840 147
-345 165 -551 468 -567 830 l-3 75 315 3 315 2 17 -81 c47 -226 171 -354 403
-415 59 -16 106 -19 290 -18 192 0 230 3 297 22 210 58 321 160 347 321 32
200 -72 318 -359 405 -47 14 -228 57 -402 96 -444 99 -610 148 -768 231 -190
99 -304 237 -365 444 -37 122 -46 345 -20 480 33 181 116 335 249 470 170 170
375 265 668 310 141 21 513 14 636 -13z"/>
</g>
</svg>
